<svg width="63" height="79" viewBox="0 0 63 79" fill="none" xmlns="http://www.w3.org/2000/svg">
<path fill-rule="evenodd" clip-rule="evenodd" d="M57.0183 30.1961H60.8381C62.5365 30.1961 63.288 28.0567 61.9611 26.9946L47.968 15.7953C47.3118 15.2701 46.3791 15.2701 45.7228 15.7953L31.7288 26.9936C30.4019 28.0557 31.1487 30.1961 32.8518 30.1961H37.2451V49.6522C37.2451 54.5483 33.2729 58.5939 28.3786 58.511C23.6415 58.43 19.8132 54.5693 19.8132 49.8332V28.3701C19.8132 23.5844 23.7244 19.6923 28.5291 19.6923H28.5482C29.696 19.6935 30.7512 19.0626 31.2935 18.051L38.0862 5.38195C38.5176 4.57612 38.5601 3.61808 38.2018 2.7772C37.8434 1.93632 37.123 1.30339 36.243 1.05638C33.5077 0.290426 30.6734 -0.0627414 27.8338 0.00856325C12.5404 0.372441 0.0371094 13.4616 0.0371094 28.694V49.8332C0.0371094 65.8219 13.391 78.7691 29.5798 78.1852C44.9608 77.6336 57.0183 64.8026 57.0183 49.4817V30.1961Z" fill="white"/>
<g style="mix-blend-mode:overlay" opacity="0.77">
<path d="M19.2931 76.6811C8.25679 72.7927 0.227662 62.4689 0 50.2952L19.9704 50.0875C20.06 54.8684 24.0769 58.4605 28.9302 58.411C33.7835 58.3614 37.6261 52.6318 37.5747 49.9046C37.8023 62.0964 30.1819 72.5689 19.2931 76.6811Z" fill="url(#paint0_linear)"/>
</g>
<defs>
<linearGradient id="paint0_linear" x1="0.865258" y1="51.6305" x2="1.14168" y2="78.3093" gradientUnits="userSpaceOnUse">
<stop stop-color="#040000" stop-opacity="0.01"/>
<stop offset="1" stop-color="#040000"/>
</linearGradient>
</defs>
</svg>
