<svg width="45" height="24" viewBox="0 0 45 24" fill="none" xmlns="http://www.w3.org/2000/svg">
<path fill-rule="evenodd" clip-rule="evenodd" d="M43.2236 1.7641H16.8154V14.9747H44.43V1.7641H43.2236ZM40.8303 6.5741H32.4284V5.3638H40.8303V6.5741ZM32.4284 11.3698H40.8303V10.1751H32.4284V11.3698ZM20.4203 10.1751H28.8235V11.3698H20.4203V10.1751ZM28.8235 5.3651H20.4203V6.5754H28.8235V5.3651Z" fill="#C11315"/>
<path d="M42.0276 14.9721H40.8303H39.6356H38.424H37.228H36.032H34.8217H33.6244H32.4284H31.2181H30.0208H28.8261H27.6145H26.4185H25.2225H24.0109H22.8149H21.6189H20.4229H19.2113H18.0153H16.8193H15.609H14.413V16.1681H13.217H12.0054V17.3628V18.5731H13.217H14.413H15.609H16.8193H18.0153H19.2113H20.4229H21.6189H22.8149H24.0109V17.3628V16.1681H25.2225H26.4185H27.6145H28.8261H30.0208H31.2181H32.4284V17.3628V18.5731H33.6244H34.8217V17.3628V16.1681H36.032H37.228H38.424H39.6356H40.8303H42.0276V17.3628V18.5731H43.2236H44.4339V17.3628V16.1681V14.9721H43.2236H42.0276Z" fill="#747273"/>
<path fill-rule="evenodd" clip-rule="evenodd" d="M40.8304 16.1681V17.3628H42.0277V22.1728H40.8304V23.3675H36.0321V22.1728H34.8218V17.3628H36.0321V16.1681H40.8304ZM39.6357 20.9638V19.7691L39.6331 18.5731H37.2255V20.9638H39.6357Z" fill="black"/>
<rect x="40.8306" y="16.1681" width="1.196" height="1.1947" fill="#746A75"/>
<path d="M38.4243 10.1764H37.2283H36.0323H34.822H33.6247H32.4287V11.3711H33.6247H34.822H36.0323H37.2283H38.4243H39.6359H40.8306V10.1764H39.6359H38.4243Z" fill="#A5131B"/>
<path d="M38.4243 5.36511H37.2283H36.0323H34.822H33.6247H32.4287V6.57541H33.6247H34.822H36.0323H37.2283H38.4243H39.6359H40.8306V5.36511H39.6359H38.4243Z" fill="#A5131B"/>
<path d="M37.228 18.5731V19.7691V20.9638H38.424H39.6356V19.7691V18.5731H38.424H37.228Z" fill="#747273"/>
<rect x="34.8218" y="16.1681" width="1.2103" height="1.1947" fill="#746A75"/>
<path fill-rule="evenodd" clip-rule="evenodd" d="M31.2183 16.1681V17.3628H32.4286V22.1728H31.2183V23.3675H26.4187V22.1728H25.2227V17.3628H26.4187V16.1681H31.2183ZM30.021 20.9638V19.7691V18.5731H27.6147V20.9638H30.021Z" fill="black"/>
<rect x="31.2183" y="16.1681" width="1.2103" height="1.1947" fill="#746A75"/>
<path d="M27.6147 18.5731V19.7691V20.9638H28.8263H30.021V19.7691V18.5731H28.8263H27.6147Z" fill="#747273"/>
<path d="M26.4188 17.3628V16.1681H25.2228H24.0112V17.3628V18.5731H25.2228V17.3628H26.4188Z" fill="#746A75"/>
<path d="M22.8149 11.3711H24.0109H25.2225H26.4185H27.6145H28.8261V10.1764H27.6145H26.4185H25.2225H24.0109H22.8149H21.6189H20.4229V11.3711H21.6189H22.8149Z" fill="#A5131B"/>
<path d="M22.8149 6.57541H24.0109H25.2225H26.4185H27.6145H28.8261V5.36511H27.6145H26.4185H25.2225H24.0109H22.8149H21.6189H20.4229V6.57541H21.6189H22.8149Z" fill="#A5131B"/>
<path fill-rule="evenodd" clip-rule="evenodd" d="M10.8095 16.1681V17.3628H12.0055V22.1728H10.8095V23.3675H6.00994V22.1728H4.79834V17.3628H6.00994V16.1681H10.8095ZM9.61354 20.9638V19.7691V18.5731H7.20724V20.9638H9.61354Z" fill="black"/>
<rect x="10.8096" y="16.1681" width="1.196" height="1.1947" fill="#746A75"/>
<path d="M7.20703 18.5731V19.7691V20.9638H8.40173H9.61333V19.7691V18.5731H8.40173H7.20703Z" fill="#747273"/>
<path fill-rule="evenodd" clip-rule="evenodd" d="M6.0099 16.1681V17.3628H4.8035V18.5731H1.2155V16.1681H0V8.9661H9.6135V4.1691H2.4063V1.7641H14.4131V16.1681H6.0099ZM12.0055 12.5671H2.4063V13.7618H12.0055V12.5671Z" fill="#C11315"/>
<path d="M4.79825 13.7618H6.00985H7.20715H8.40185H9.61345H10.8095H12.0055V12.5671H10.8095H9.61345H8.40185H7.20715H6.00985H4.79825H3.60355H2.40625V13.7618H3.60355H4.79825Z" fill="#A5131B"/>
<path d="M2.4063 8.96613H3.6036H4.7983H6.0099H7.2072H8.4019H9.6135V7.77013V6.57543V5.36513V4.16913H8.4019H7.2072H6.0099H4.7983H3.6036H2.4063V5.36513V6.57543H1.2103V7.77013H0V8.96613H1.2103H2.4063Z" fill="black"/>
<path d="M1.2103 16.1681H0V17.3628V18.5731H1.2103V17.3628V16.1681Z" fill="#FF7610"/>
<path fill-rule="evenodd" clip-rule="evenodd" d="M42.5815 2.30103H17.1743V15.0098H43.7463V2.30103H42.5815ZM40.2792 6.93033H32.1945V5.76033H40.2792V6.93033ZM32.1945 11.5453H40.2792V10.3948H32.1945V11.5453ZM20.6414 10.3948H28.7274V11.5453H20.6414V10.3948ZM28.7274 5.76553H20.6414V6.93553H28.7274V5.76553Z" fill="#C11315"/>
<path d="M41.4309 15.0098H40.2791H39.1286H37.9638H36.812H35.6615H34.4954H33.3449H32.1944H31.0283H29.8778H28.7273H27.5612H26.4107H25.2589H24.0941H22.9423H21.7931H20.6413H19.4752H18.3247H17.1742H16.0081H14.8576V16.1603H13.7071H12.541V17.3108V18.4756H13.7071H14.8576H16.0081H17.1742H18.3247H19.4752H20.6413H21.7931H22.9423H24.0941V17.3108V16.1603H25.2589H26.4107H27.5612H28.7273H29.8778H31.0283H32.1944V17.3108V18.4756H33.3449H34.4954V17.3108V16.1603H35.6615H36.812H37.9638H39.1286H40.2791H41.4309V17.3108V18.4756H42.5814H43.7462V17.3108V16.1603V15.0098H42.5814H41.4309Z" fill="#747273"/>
<path fill-rule="evenodd" clip-rule="evenodd" d="M40.2793 16.1642V17.3147H41.435V21.9453H40.2832V23.0945H35.6656V21.9453H34.4956V17.3147H35.6656V16.1642H40.2793ZM39.1288 20.7792V19.63V18.4756H36.8122V20.7792H39.1288Z" fill="black"/>
<rect x="40.2793" y="16.1603" width="1.1518" height="1.1505" fill="#746A75"/>
<path d="M37.9637 10.3948H36.8119H35.6614H34.4953H33.3448H32.1943V11.5453H33.3448H34.4953H35.6614H36.8119H37.9637H39.1285H40.279V10.3948H39.1285H37.9637Z" fill="#DAA520"/>
<path d="M37.9637 5.7655H36.8119H35.6614H34.4953H33.3448H32.1943V6.9303H33.3448H34.4953H35.6614H36.8119H37.9637H39.1285H40.279V5.7655H39.1285H37.9637Z" fill="#DAA520"/>
<path d="M36.812 18.4756V19.6261V20.7753H37.9638H39.1286V19.6261V18.4756H37.9638H36.812Z" fill="#747273"/>
<rect x="34.4956" y="16.1603" width="1.1648" height="1.1505" fill="#746A75"/>
<path fill-rule="evenodd" clip-rule="evenodd" d="M31.0285 16.1642V17.3147H32.2037V21.9453H31.0337V23.0945H26.4161V21.9453H25.2656V17.3147H26.4109V16.1642H31.0285ZM29.878 20.7792V19.63V18.4756H27.5614V20.7792H29.878Z" fill="black"/>
<rect x="31.0283" y="16.1603" width="1.1648" height="1.1505" fill="#746A75"/>
<path d="M27.5615 18.4756V19.6261V20.7753H28.7276H29.8781V19.6261V18.4756H28.7276H27.5615Z" fill="#747273"/>
<path d="M26.4108 17.3108V16.1603H25.259H24.0942V17.3108V18.4756H25.259V17.3108H26.4108Z" fill="#746A75"/>
<path d="M22.9426 11.5453H24.0944H25.2592H26.411H27.5615H28.7276V10.3948H27.5615H26.411H25.2592H24.0944H22.9426H21.7934H20.6416V11.5453H21.7934H22.9426Z" fill="#DAA520"/>
<path d="M22.9426 6.9303H24.0944H25.2592H26.411H27.5615H28.7276V5.7655H27.5615H26.411H25.2592H24.0944H22.9426H21.7934H20.6416V6.9303H21.7934H22.9426Z" fill="#DAA520"/>
<path d="M20.6413 2.301H21.7931H22.9423H24.0941H25.2589H26.4107H27.5612H28.7273H29.8778H31.0283H32.1944H33.3449H34.4954H35.6615H36.812H37.9638H39.1286H40.2791H41.4309H42.5814V1.1505H41.4309V0H40.2791H39.1286H37.9638H36.812H35.6615H34.4954H33.3449H32.1944H31.0283H29.8778H28.7273H27.5612H26.4107H25.2589H24.0941H22.9423H21.7931H20.6413H19.4752V1.1505H18.3247V2.301H19.4752H20.6413Z" fill="#DAA520"/>
<path fill-rule="evenodd" clip-rule="evenodd" d="M11.3905 16.1642V17.3147H12.541V21.9453H11.3905V23.0945H6.77156V21.9453H5.60156V17.3147H6.77156V16.1642H11.3905ZM10.24 20.7792V19.63V18.4756H7.92336V20.7792H10.24Z" fill="black"/>
<rect x="11.3906" y="16.1603" width="1.1505" height="1.1505" fill="#746A75"/>
<path d="M7.92334 18.4756V19.6261V20.7753H9.07384H10.2386V19.6261V18.4756H9.07384H7.92334Z" fill="#747273"/>
<path fill-rule="evenodd" clip-rule="evenodd" d="M6.77166 16.1642V17.3147L5.61206 17.3056V18.4756H2.15926V16.1603H0.989258V9.23003H10.2401V4.61503H3.30456V2.30103H14.8577V16.1642H6.77166ZM12.5346 12.6997H3.30456V13.8489H12.5346V12.6997Z" fill="#C11315"/>
<path d="M5.60699 13.845H6.77179H7.92359H9.07409H10.2389H11.3907H12.5412V12.6958H11.3907H10.2389H9.07409H7.92359H6.77179H5.60699H4.45649H3.30469V13.845H4.45649H5.60699Z" fill="#A5131B"/>
<path d="M3.30456 9.22999H4.45636H5.60686H6.77166H7.92346H9.07396H10.2388V8.07949V6.93029V5.76549V4.61499H9.07396H7.92346H6.77166H5.60686H4.45636H3.30456V5.76549V6.93029H2.15406V8.07949H0.989258V9.22999H2.15406H3.30456Z" fill="black"/>
<path d="M2.15406 16.1603H0.989258V17.3108V18.4756H2.15406V17.3108V16.1603Z" fill="#FF7610"/>
</svg>
